# xmcd
#
# Track frame offsets:
#	182
#	17120
#	34670
#	48470
#	71970
#	84120
#	106470
#	124545
#	142932
#	159082
#	179070
#	202345
#	216570
#	234745
#	242870
#	253170
#
# Disc length: 3688 seconds
#
# Revision: 1
# Processed by: cddbd v1.5.2PL0 Copyright (c) Steve Scherf et al.
# Submitted via: audiograbber 1.83.01
#
DISCID=ed0e6610
DTITLE=Various Artist - Memories - Traummelodien 1
DYEAR=1990
DGENRE=
TTITLE0=Andrew Lloyd Webber - Memory
TTITLE1=Manfred Schmitz - Andrea
TTITLE2=Felix Mendelssohn Bartholdy - Lied ohne Worte
TTITLE3=Fryderyk Chopin - Regentropfen-Prélude
TTITLE4=Ludwig van Beethoven - Für Elise
TTITLE5=Manfred Schmitz - Romantisches Inermezzo
TTITLE6=Barry Gibb - Woman In Love
TTITLE7=Manfred Schmitz - Nordische Romanze
TTITLE8=Fracis Lai - Bilitis
TTITLE9=Robert Schumann - Romanze (op. 28 Nr. 2)
TTITLE10=Ludwig van Beethoven - Mondschein-Sonate (1. Satz)
TTITLE11=Robert Schumann - Träumerei
TTITLE12=Franz Liszt - Consolation (Nr. 3)
TTITLE13=Robert Schumann - Von fremden Ländern und Menschen
TTITLE14=Johann Sebastian Bach - Präludium C-Dur
TTITLE15=Fryderyk Chopin - Nocturne (op. 32 Nr. 1)
EXTD=
EXTT0=
EXTT1=
EXTT2=
EXTT3=
EXTT4=
EXTT5=
EXTT6=
EXTT7=
EXTT8=
EXTT9=
EXTT10=
EXTT11=
EXTT12=
EXTT13=
EXTT14=
EXTT15=
PLAYORDER=
